<?xml version="1.0" encoding="iso-8859-1"?>
<!-- Uploaded to: SVG Repo, www.svgrepo.com, Generator: SVG Repo Mixer Tools -->
<!DOCTYPE svg PUBLIC "-//W3C//DTD SVG 1.1//EN" "http://www.w3.org/Graphics/SVG/1.1/DTD/svg11.dtd">
<svg height="800px" width="800px" version="1.1" id="Capa_1" xmlns="http://www.w3.org/2000/svg" xmlns:xlink="http://www.w3.org/1999/xlink" 
	 viewBox="0 0 450.416 450.416" xml:space="preserve">
<g>
	<path style="fill:none;" d="M135.92,213.879l-26.344,48.557h55.266C162.099,242.585,151.334,225.267,135.92,213.879z"/>
	<path style="fill:none;" d="M145.529,196.168c21.576,14.971,36.523,38.847,39.476,66.267h34.252l55.366-102.048H164.941
		L145.529,196.168z"/>
	<path style="fill:none;" d="M362.412,281.226c-1.515,0.821-3.149,1.212-4.76,1.212c-3.55,0-6.986-1.894-8.799-5.233l-34.357-63.325
		c-17.955,13.265-29.625,34.571-29.625,58.557c0,40.127,32.646,72.773,72.772,72.773c40.127,0,72.772-32.646,72.772-72.773
		c0-40.127-32.645-72.772-72.772-72.772c-9,0-17.618,1.654-25.581,4.654l34.371,63.35
		C369.067,272.522,367.267,278.592,362.412,281.226z"/>
	<path style="fill:none;" d="M20,272.435c0,40.127,32.646,72.773,72.772,72.773c36.733,0,67.178-27.363,72.069-62.773H92.772
		c-3.525,0-6.79-1.856-8.594-4.886c-1.803-3.029-1.877-6.784-0.196-9.883l34.371-63.35c-7.963-3-16.581-4.654-25.581-4.654
		C52.646,199.663,20,232.309,20,272.435z"/>
	<path d="M145.529,196.168l-9.609,17.71c15.414,11.388,26.18,28.706,28.921,48.557h20.164
		C182.052,235.015,167.104,211.139,145.529,196.168z"/>
	<path d="M92.772,345.208C52.646,345.208,20,312.563,20,272.435c0-40.127,32.646-72.772,72.772-72.772
		c9,0,17.618,1.654,25.581,4.654l9.611-17.714c-10.858-4.468-22.741-6.94-35.192-6.94C41.617,179.663,0,221.28,0,272.435
		c0,51.155,41.617,92.773,92.772,92.773c47.777,0,87.229-36.303,92.232-82.773h-20.163
		C159.951,317.845,129.506,345.208,92.772,345.208z"/>
	<path d="M357.643,179.663c-12.451,0-24.334,2.471-35.192,6.94l9.611,17.714c7.963-3,16.581-4.654,25.581-4.654
		c40.127,0,72.772,32.645,72.772,72.772c0,40.127-32.645,72.773-72.772,72.773c-40.127,0-72.772-32.646-72.772-72.773
		c0-23.986,11.67-45.292,29.625-58.557l-9.609-17.71c-24.161,16.764-40.016,44.697-40.016,76.267
		c0,51.155,41.617,92.773,92.772,92.773c51.155,0,92.772-41.617,92.772-92.773C450.416,221.28,408.799,179.663,357.643,179.663z"/>
	<path style="fill:#E85512;" d="M348.853,277.204c1.813,3.34,5.249,5.233,8.799,5.233c1.61,0,3.245-0.391,4.76-1.212
		c4.854-2.634,6.655-8.704,4.021-13.559l-34.371-63.35l-9.611-17.714l-19.649-36.215l24.512-45.18h-5.952c-5.523,0-10-4.478-10-10
		c0-1.715,0.433-3.328,1.193-4.738l-27.083,49.918H164.942l-7.112-13.107h-22.755l12.537,23.107l-19.649,36.215l-9.611,17.714
		l-34.371,63.35c-1.681,3.099-1.606,6.854,0.196,9.883c1.804,3.029,5.068,4.886,8.594,4.886h72.069h20.163h40.203
		c3.667,0,7.041-2.008,8.79-5.231l57.428-105.848l13.462,24.812l9.609,17.71L348.853,277.204z M219.257,262.435h-34.252h-20.164
		h-55.266l26.344-48.557l9.609-17.71l19.413-35.781h109.682L219.257,262.435z"/>
	<path d="M321.363,105.208h5.952h19.292c10.004,0,18.143,8.139,18.143,18.143c0,5.522,4.478,10,10,10s10-4.478,10-10
		c0-21.032-17.11-38.143-38.143-38.143h-25.244c-3.808,0-7.118,2.129-8.807,5.262c-0.76,1.41-1.193,3.024-1.193,4.738
		C311.363,100.73,315.841,105.208,321.363,105.208z"/>
	<path d="M175.52,127.28c5.523,0,10-4.478,10-10c0-5.522-4.477-10-10-10h-57.949c-5.522,0-10,4.478-10,10c0,5.522,4.478,10,10,10
		h17.504h22.755H175.52z"/>
</g>
</svg>