<?xml version="1.0" encoding="iso-8859-1"?>
<!-- Uploaded to: SVG Repo, www.svgrepo.com, Generator: SVG Repo Mixer Tools -->
<!DOCTYPE svg PUBLIC "-//W3C//DTD SVG 1.1//EN" "http://www.w3.org/Graphics/SVG/1.1/DTD/svg11.dtd">
<svg height="800px" width="800px" version="1.1" id="Capa_1" xmlns="http://www.w3.org/2000/svg" xmlns:xlink="http://www.w3.org/1999/xlink" 
	 viewBox="0 0 420 420" xml:space="preserve">
<g>
	<path style="fill:#FFD5A1;" d="M282.433,209.298c6.741,0,13.215-1.757,18.917-5.039l-51.96-51.96
		c-3.276,5.701-5.029,12.177-5.026,18.924c0.003,10.163,3.965,19.72,11.154,26.908C262.718,205.333,272.277,209.299,282.433,209.298
		z"/>
	<path style="fill:#6ECCAE;" d="M320.491,171.235c0.006-10.18-3.95-19.746-11.14-26.935c-7.176-7.177-16.736-11.129-26.919-11.129
		c-6.746,0-13.217,1.732-18.901,4.986l51.961,51.962C318.749,184.436,320.486,177.971,320.491,171.235z"/>
	<path d="M282.434,229.298c15.5,0,30.084-6.049,41.066-17.03c0.003-0.003,0.006-0.007,0.009-0.01
		c10.94-10.945,16.971-25.508,16.982-41.01c0.01-15.527-6.027-30.121-16.997-41.092c-10.954-10.953-25.536-16.986-41.062-16.986
		c-15.526,0-30.105,6.029-41.053,16.977c-0.003,0.003-0.006,0.007-0.009,0.01c-10.973,10.977-17.012,25.564-17.006,41.074
		c0.005,15.503,6.047,30.079,17.012,41.044C252.353,223.253,266.935,229.299,282.434,229.298z M282.432,133.17
		c10.183,0,19.743,3.952,26.919,11.129c7.19,7.189,11.146,16.756,11.14,26.935c-0.004,6.736-1.741,13.201-4.999,18.884
		l-51.961-51.962C269.215,134.903,275.685,133.17,282.432,133.17z M249.389,152.3l51.96,51.96
		c-5.701,3.282-12.175,5.039-18.917,5.039c-10.156,0.001-19.715-3.965-26.916-11.166c-7.189-7.188-11.15-16.745-11.154-26.908
		C244.36,164.477,246.113,158,249.389,152.3z"/>
	<path style="fill:#FFD5A1;" d="M217.287,221.968c-14.02-18.678-23.15-19.866-30.93-18.373c-0.085,0.016-0.175,0.043-0.261,0.061
		c0.787,1.088,1.588,2.174,2.425,3.253c3.384,4.365,2.588,10.646-1.777,14.03c-1.822,1.413-3.979,2.097-6.12,2.097
		c-2.985,0-5.939-1.331-7.91-3.873c-1.856-2.394-3.61-4.829-5.272-7.297c-8.493,5.139-18.195,12.271-29.412,20.708
		c-7.035,5.281-13.004,10.135-17.997,14.652c6.096-2.21,13.513-3.748,23.293-3.748c19.436,0,29.553,6.07,38.478,11.425
		c7.984,4.791,14.291,8.575,28.188,8.575c5.266,0,9.439-0.545,13.029-1.481C230.934,251.48,231.873,241.382,217.287,221.968z"/>
	<path d="M120.033,247.226c4.993-4.517,10.962-9.371,17.997-14.652c11.217-8.437,20.919-15.569,29.412-20.708
		c1.662,2.467,3.416,4.903,5.272,7.297c1.971,2.542,4.925,3.873,7.91,3.873c2.141,0,4.297-0.684,6.12-2.097
		c4.365-3.384,5.161-9.665,1.777-14.03c-0.837-1.079-1.638-2.165-2.425-3.253c0.086-0.017,0.175-0.044,0.261-0.061
		c7.78-1.493,16.911-0.305,30.93,18.373c14.586,19.414,13.647,29.512,5.735,40.029c5.885-1.533,10.2-4.119,15.159-7.094
		c3.207-1.924,6.577-3.937,10.468-5.731c0.538-12.05-4.565-24.833-15.37-39.213c-10.066-13.41-26.275-30.697-50.697-26.004
		c-2.31,0.444-4.642,1.088-7.002,1.883c-15.587-33.542-8.849-68.398,19.503-91.574c4.276-3.495,4.909-9.795,1.414-14.071
		c-3.496-4.275-9.795-4.908-14.071-1.413c-21.697,17.735-33.793,41.029-34.98,67.364c-0.721,16.004,2.818,32.553,10.154,48.341
		c-9.503,5.692-19.822,13.252-31.584,22.099c-24.108,18.097-37.497,32.447-43.203,46.601c9.806-0.963,15.34-4.264,22.038-8.282
		C109.284,252.243,114.015,249.407,120.033,247.226z"/>
	<path style="fill:#6ECCAE;" d="M10,263.478c13.896,0,20.203,3.784,28.187,8.575c8.925,5.355,19.041,11.425,38.477,11.425
		c19.436,0,29.551-6.07,38.476-11.425c7.984-4.791,14.291-8.575,28.186-8.575c13.896,0,20.204,3.784,28.188,8.575
		c8.925,5.355,19.042,11.425,38.478,11.425c19.437,0,29.553-6.069,38.479-11.425c7.985-4.791,14.291-8.575,28.188-8.575
		c13.898,0,20.206,3.784,28.191,8.575c8.926,5.355,19.042,11.425,38.479,11.425c19.437,0,29.554-6.069,38.479-11.425
		c7.985-4.791,14.293-8.575,28.191-8.575c5.523,0,10-4.478,10-10c0-5.523-4.477-10-10-10c-19.438,0-29.554,6.069-38.481,11.425
		c-7.985,4.791-14.292,8.575-28.19,8.575c-13.898,0-20.205-3.784-28.19-8.575c-8.926-5.356-19.043-11.425-38.48-11.425
		c-12.453,0-21.071,2.495-28.01,5.694c-3.892,1.794-7.261,3.807-10.468,5.731c-4.959,2.976-9.274,5.561-15.159,7.094
		c-3.59,0.936-7.764,1.481-13.029,1.481c-13.896,0-20.203-3.784-28.188-8.575c-8.925-5.355-19.042-11.425-38.478-11.425
		c-9.78,0-17.197,1.538-23.293,3.748c-6.018,2.181-10.749,5.017-15.183,7.677c-6.698,4.019-12.232,7.32-22.038,8.282
		c-1.884,0.185-3.909,0.293-6.148,0.293c-13.896,0-20.203-3.784-28.187-8.575c-8.925-5.355-19.041-11.425-38.477-11.425
		c-5.523,0-10,4.477-10,10C0,259,4.477,263.478,10,263.478z"/>
	<path style="fill:#6ECCAE;" d="M410,303.478c-19.438,0-29.554,6.069-38.481,11.425c-7.985,4.791-14.292,8.575-28.19,8.575
		c-13.898,0-20.205-3.784-28.19-8.575c-8.926-5.355-19.043-11.425-38.48-11.425c-19.436,0-29.553,6.069-38.478,11.425
		c-7.985,4.791-14.292,8.575-28.189,8.575c-13.896,0-20.203-3.784-28.188-8.575c-8.925-5.354-19.042-11.425-38.478-11.425
		c-19.436,0-29.551,6.07-38.476,11.425c-7.984,4.791-14.291,8.575-28.186,8.575c-13.896,0-20.203-3.784-28.187-8.575
		c-8.925-5.354-19.041-11.425-38.477-11.425c-5.523,0-10,4.478-10,10c0,5.522,4.477,10,10,10c13.896,0,20.203,3.784,28.187,8.575
		c8.925,5.355,19.041,11.425,38.477,11.425c19.436,0,29.551-6.07,38.476-11.425c7.984-4.791,14.291-8.575,28.186-8.575
		c13.896,0,20.204,3.784,28.188,8.575c8.925,5.355,19.042,11.425,38.478,11.425c19.437,0,29.553-6.069,38.479-11.425
		c7.985-4.791,14.291-8.575,28.188-8.575c13.898,0,20.206,3.784,28.191,8.575c8.926,5.355,19.042,11.425,38.479,11.425
		c19.437,0,29.554-6.069,38.479-11.425c7.985-4.791,14.293-8.575,28.191-8.575c5.523,0,10-4.478,10-10
		C420,307.956,415.523,303.478,410,303.478z"/>
</g>
</svg>